<?xml version="1.0" encoding="UTF-8"?>
<svg version="1.1" xmlns="http://www.w3.org/2000/svg" width="650" height="520">
<path d="M0 0 C214.5 0 429 0 650 0 C650 171.6 650 343.2 650 520 C435.5 520 221 520 0 520 C0 348.4 0 176.8 0 0 Z " fill="#FEFEFE" transform="translate(0,0)"/>
<path d="M0 0 C214.5 0 429 0 650 0 C650 171.6 650 343.2 650 520 C435.5 520 221 520 0 520 C0 348.4 0 176.8 0 0 Z M28 27 C28 179.46 28 331.92 28 489 C222.7 489 417.4 489 618 489 C618 336.54 618 184.08 618 27 C423.3 27 228.6 27 28 27 Z " fill="#E6E6E8" transform="translate(0,0)"/>
<path d="M0 0 C0.02578125 0.83402344 0.0515625 1.66804688 0.078125 2.52734375 C0.66709852 14.21311374 3.4998413 21.84397728 12 30 C16.06970876 33.41979329 20.36420433 36.39236494 25 39 C23.22641509 47.32075472 23.22641509 47.32075472 21.9375 51.1875 C20.49643132 57.04784595 20.31689652 62.98730546 20 69 C20.66 69 21.32 69 22 69 C22.29132813 69.66386719 22.58265625 70.32773438 22.8828125 71.01171875 C26.61217451 79.0450929 30.25520881 83.11705386 38.6875 86.25 C40.45404971 86.84617999 42.22439388 87.43136005 44 88 C44.99 88.33 45.98 88.66 47 89 C49.05893621 89.22325814 51.12233653 89.40705759 53.1875 89.5625 C54.81751953 89.68818359 54.81751953 89.68818359 56.48046875 89.81640625 C57.31191406 89.87699219 58.14335937 89.93757813 59 90 C59.80162043 92.32211338 60.13137748 93.5945836 59.36328125 95.96484375 C56.02684631 102.2284112 52.09174997 107.03554378 47 112 C46.34 112.78375 45.68 113.5675 45 114.375 C44.34 114.91125 43.68 115.4475 43 116 C40.375 115.6015625 40.375 115.6015625 38 115 C37.814375 113.93072266 37.814375 113.93072266 37.625 112.83984375 C36.15254976 106.00215293 34.30183341 102.50891867 28.64453125 98.33984375 C28.10183594 97.89769531 27.55914062 97.45554687 27 97 C27 96.34 27 95.68 27 95 C18.42028185 92.20833466 10.11795585 90.04076117 1.0546875 89.8671875 C-10.60914935 89.64136806 -20.02019445 89.21265575 -29.16796875 81.0703125 C-33.73506167 76.23013567 -36.81810116 71.33481203 -37.1875 64.5625 C-37.0946875 63.2940625 -37.0946875 63.2940625 -37 62 C-40.89256096 65.71562637 -42.35126671 68.3953883 -42.5625 73.8125 C-42.51235484 78.11250326 -42.51235484 78.11250326 -40.75 81.91015625 C-38.92458358 83.49471912 -37.06257552 84.74038285 -35 86 C-34.30132812 86.49886719 -33.60265625 86.99773437 -32.8828125 87.51171875 C-27.53827192 91.28713265 -21.86953402 94.14259943 -16 97 C-11.98281451 99.14249893 -9.05059189 101.60076904 -6 105 C-6 105.66 -6 106.32 -6 107 C-5.11441406 107.12955078 -5.11441406 107.12955078 -4.2109375 107.26171875 C1.92742454 109.31145448 5.5615921 117.74841519 8.375 123.125 C10.48202517 127.50716405 11.77952625 131.14957748 12 136 C10.53515625 134.73046875 9.0703125 133.4609375 7.60546875 132.19140625 C5.89287029 130.79128769 5.89287029 130.79128769 3 130 C3.825 130.94875 4.65 131.8975 5.5 132.875 C8 135.75 8 135.75 8 138 C8.66 138 9.32 138 10 138 C15.051066 150.73747078 19.18513454 162.07979694 19.0625 175.9375 C19.05798828 176.62134766 19.05347656 177.30519531 19.04882812 178.00976562 C19.0371956 179.67321604 19.01926694 181.3366205 19 183 C16.69932976 180.79990551 15.34832031 178.88925782 14 176 C13.67 175.67 13.34 175.34 13 175 C13.02356567 175.83023682 13.02356567 175.83023682 13.04760742 176.67724609 C13.57232269 197.95367542 13.57232269 197.95367542 10 205 C9.34 205.66 8.68 206.32 8 207 C6.68 204.36 5.36 201.72 4 199 C3.67 199 3.34 199 3 199 C2.63648438 200.62808594 2.63648438 200.62808594 2.265625 202.2890625 C1.92772466 203.73452507 1.58914687 205.17982939 1.25 206.625 C1.09273438 207.33785156 0.93546875 208.05070313 0.7734375 208.78515625 C-0.37146035 213.5849203 -2.07635208 216.94730106 -5 221 C-5.33 221.99 -5.66 222.98 -6 224 C-6.66 224 -7.32 224 -8 224 C-9.32 221.36 -10.64 218.72 -12 216 C-12.66 216 -13.32 216 -14 216 C-13.96132813 216.71800781 -13.92265625 217.43601562 -13.8828125 218.17578125 C-14.01055317 221.25433131 -14.69935336 223.35135976 -15.875 226.1875 C-16.22304688 227.04730469 -16.57109375 227.90710938 -16.9296875 228.79296875 C-18 231 -18 231 -20 233 C-21.03842565 235.31648799 -22.0421975 237.64903024 -23 240 C-24.65 239.67 -26.3 239.34 -28 239 C-28.12632812 239.71800781 -28.25265625 240.43601562 -28.3828125 241.17578125 C-28.99650733 243.98401773 -29.8306141 246.51176714 -30.875 249.1875 C-31.20242188 250.04730469 -31.52984375 250.90710938 -31.8671875 251.79296875 C-33 254 -33 254 -36 256 C-36 254.35 -36 252.7 -36 251 C-38.99152582 251.77479736 -38.99152582 251.77479736 -42 253 C-42.33 253.99 -42.66 254.98 -43 256 C-43.99 256 -44.98 256 -46 256 C-46.25999824 266.44326277 -46.34386351 276.96840946 -43 287 C-42.01 287.33 -41.02 287.66 -40 288 C-39.5875 288.928125 -39.175 289.85625 -38.75 290.8125 C-36.26958801 295.33039328 -33.05182928 297.0671534 -28.0703125 298.58984375 C-21.20293649 299.95036164 -13.04492256 299.81725665 -7 296 C-4.86799239 293.47332686 -3.12100106 290.90917196 -1.41015625 288.08203125 C-0.94480469 287.39496094 -0.47945313 286.70789063 0 286 C0.66 286 1.32 286 2 286 C1.88521587 283.93690624 1.75773802 281.87451646 1.625 279.8125 C1.55539062 278.66394531 1.48578125 277.51539063 1.4140625 276.33203125 C0.92877258 272.42682083 0.28455562 269.38229355 -2.4375 266.453125 C-8.72342399 261.61296353 -13.11570976 261.26825542 -21 262 C-24.87771288 263.76878132 -26.46953354 265.26419168 -28.9375 268.6875 C-30.34352327 273.07098431 -30.22279105 276.57349639 -29 281 C-27.17879704 283.81992717 -25.99309044 285.50345478 -23 287 C-16.16051103 287.46855465 -16.16051103 287.46855465 -10 285 C-8.69189218 282.41543213 -7.79552509 279.78110397 -7 277 C-6.34 277 -5.68 277 -5 277 C-5.22439656 282.60991399 -6.48552764 285.12961642 -10.4296875 288.8359375 C-14.18857865 291.6223792 -18.64032928 291.5122954 -23.13671875 291.4765625 C-29.19566905 290.46811511 -32.49983828 286.01584231 -36 281.3125 C-37.79650627 275.36157298 -38.32607729 269.30012415 -35.96875 263.43359375 C-32.22828764 257.29300137 -26.57596933 252.17974209 -19.5 250.35546875 C-8.62579475 248.80929269 -0.94536056 251.8260076 8 258 C14.28382633 264.12270258 16.11367639 273.17863481 16.25 281.6875 C16.18944491 289.87252911 14.37199134 298.35460395 8.6875 304.5 C1.7 311 1.7 311 -1 311 C-1 311.66 -1 312.32 -1 313 C-2.98 313.66 -4.96 314.32 -7 315 C-7 315.66 -7 316.32 -7 317 C-13.2237577 319.43332797 -18.69882947 320.5262607 -25.375 320.4375 C-26.20789551 320.42702637 -27.04079102 320.41655273 -27.89892578 320.40576172 C-40.46854317 320.03613908 -50.1482603 314.79439121 -59 306 C-62.48119783 301.97436686 -65.28118469 297.5706765 -68 293 C-68.43957031 292.27941406 -68.87914062 291.55882812 -69.33203125 290.81640625 C-74.96715183 280.66474708 -75.45623234 269.40585655 -75.3125 258.0625 C-75.31572266 256.79470703 -75.31894531 255.52691406 -75.32226562 254.22070312 C-75.27580754 245.98072857 -74.49322234 238.10203469 -73 230 C-72.34 230 -71.68 230 -71 230 C-70.896875 229.0925 -70.79375 228.185 -70.6875 227.25 C-69.72177841 220.55795741 -68.23978858 213.83898396 -65.53125 207.63671875 C-63.88636936 203.73012723 -62.84048275 199.92545654 -61.875 195.8125 C-61.70613281 195.11447266 -61.53726563 194.41644531 -61.36328125 193.69726562 C-60.90456885 191.79920762 -60.45201037 189.8996652 -60 188 C-59.66913089 186.66605303 -59.337382 185.33231463 -59 184 C-59.66 184 -60.32 184 -61 184 C-61.24234375 184.55042969 -61.4846875 185.10085938 -61.734375 185.66796875 C-64.40905908 190.59632182 -68.41596465 194.71368745 -72 199 C-72.5775 199.72703125 -73.155 200.4540625 -73.75 201.203125 C-77.17146757 205.44431917 -79.56782638 207.54823309 -85.13671875 208.28125 C-89.47118012 208.56782596 -91.36088917 208.50017369 -94.875 205.75 C-95.57625 204.8425 -96.2775 203.935 -97 203 C-97.598125 202.401875 -98.19625 201.80375 -98.8125 201.1875 C-100.65405161 197.7951681 -100.19110749 194.82214982 -100 191 C-100.721875 190.9175 -101.44375 190.835 -102.1875 190.75 C-106.42600384 189.61973231 -109.0532234 187.57796101 -111.3125 183.8125 C-112.52937154 178.83438914 -112.62389751 173.87169253 -111 169 C-112.175625 167.88625 -112.175625 167.88625 -113.375 166.75 C-117.03142423 162.91946033 -117.89002585 161.38567428 -118.3125 156.0625 C-118.221763 152.32134364 -117.35500374 149.98904321 -115 147 C-114.34 146.67 -113.68 146.34 -113 146 C-113.33 144.35 -113.66 142.7 -114 141 C-114.66 141 -115.32 141 -116 141 C-116.91501926 131.62952503 -116.91501926 131.62952503 -114.734375 127.74609375 C-112.23625588 124.8417271 -110.09619479 122.35536349 -106.1796875 121.69140625 C-98.03746872 121.23599401 -91.46269036 124.1726543 -84.08154297 127.18994141 C-80.43832377 128.60774592 -76.72019286 129.80186246 -73 131 C-73.60328125 129.87464844 -74.2065625 128.74929687 -74.828125 127.58984375 C-79.36693731 118.93699203 -82.81703151 110.99486046 -85.04296875 101.4609375 C-86.30348463 96.90250049 -88.33524737 93.00060786 -90.546875 88.83984375 C-95.26594946 79.61735145 -99.2217593 68.47222258 -98 58 C-95.75 55.375 -95.75 55.375 -93 53 C-89.23318609 47.90372236 -86.09732277 43.14053091 -85.8984375 36.72265625 C-85.73748882 32.7540007 -85.43298899 29.71802548 -84 26 C-79.90278899 22.82402525 -75.56895172 20.90272121 -70.83544922 18.85595703 C-63.47970289 15.42562361 -58.00981621 9.2018625 -53 3 C-52.44828125 3.28617187 -51.8965625 3.57234375 -51.328125 3.8671875 C-39.86627465 9.44426234 -27.272661 11.4828217 -15 7.3125 C-10.91683631 5.5942456 -7.20210555 3.46798137 -3.55859375 0.953125 C-2 0 -2 0 0 0 Z " fill="#1564F2" transform="translate(354,99)"/>
<path d="M0 0 C0.02578125 0.83402344 0.0515625 1.66804688 0.078125 2.52734375 C0.66709852 14.21311374 3.4998413 21.84397728 12 30 C16.06970876 33.41979329 20.36420433 36.39236494 25 39 C23.22641509 47.32075472 23.22641509 47.32075472 21.9375 51.1875 C20.49643132 57.04784595 20.31689652 62.98730546 20 69 C20.66 69 21.32 69 22 69 C22.29132813 69.66386719 22.58265625 70.32773438 22.8828125 71.01171875 C26.61217451 79.0450929 30.25520881 83.11705386 38.6875 86.25 C40.45404971 86.84617999 42.22439388 87.43136005 44 88 C45.485 88.495 45.485 88.495 47 89 C49.05893621 89.22325814 51.12233653 89.40705759 53.1875 89.5625 C54.27417969 89.64628906 55.36085938 89.73007813 56.48046875 89.81640625 C57.31191406 89.87699219 58.14335937 89.93757813 59 90 C59.80162043 92.32211338 60.13137748 93.5945836 59.36328125 95.96484375 C56.02684631 102.2284112 52.09174997 107.03554378 47 112 C46.34 112.78375 45.68 113.5675 45 114.375 C44.34 114.91125 43.68 115.4475 43 116 C40.375 115.6015625 40.375 115.6015625 38 115 C37.814375 113.93072266 37.814375 113.93072266 37.625 112.83984375 C36.15254976 106.00215293 34.30183341 102.50891867 28.64453125 98.33984375 C28.10183594 97.89769531 27.55914062 97.45554687 27 97 C27 96.34 27 95.68 27 95 C18.42028185 92.20833466 10.11795585 90.04076117 1.0546875 89.8671875 C-10.60914935 89.64136806 -20.02019445 89.21265575 -29.16796875 81.0703125 C-34.15409995 75.78604149 -37.14137513 70.44247853 -37.1875 63.0625 C-37.14000368 61.70772411 -37.0828413 60.35307462 -37 59 C-36.34 59 -35.68 59 -35 59 C-35 58.01 -35 57.02 -35 56 C-35.66 56 -36.32 56 -37 56 C-38.625 53.5 -38.625 53.5 -40 51 C-42.65238708 57.14386712 -43.50847148 62.34013892 -43.6875 69 C-43.72166016 69.87011719 -43.75582031 70.74023438 -43.79101562 71.63671875 C-43.87257983 73.75738815 -43.93798528 75.87866891 -44 78 C-52.23079663 71.75831255 -57.9773363 61.158834 -60 51 C-60.0925252 48.91434229 -60.13067923 46.82598919 -60.1328125 44.73828125 C-60.13410156 43.53751953 -60.13539063 42.33675781 -60.13671875 41.09960938 C-60.13285156 39.84986328 -60.12898438 38.60011719 -60.125 37.3125 C-60.12886719 36.05115234 -60.13273437 34.78980469 -60.13671875 33.49023438 C-60.13542969 32.29333984 -60.13414062 31.09644531 -60.1328125 29.86328125 C-60.13168457 28.76282471 -60.13055664 27.66236816 -60.12939453 26.52856445 C-60 24 -60 24 -59 23 C-58.9175 21.906875 -58.835 20.81375 -58.75 19.6875 C-58.10768208 13.71067735 -55.45085575 8.42624889 -53 3 C-52.44828125 3.28617187 -51.8965625 3.57234375 -51.328125 3.8671875 C-39.86627465 9.44426234 -27.272661 11.4828217 -15 7.3125 C-10.91683631 5.5942456 -7.20210555 3.46798137 -3.55859375 0.953125 C-2 0 -2 0 0 0 Z " fill="#0226D8" transform="translate(354,99)"/>
<path d="M0 0 C3.81495182 1.27165061 4.37120999 3.15338836 6.35546875 6.48046875 C10.64588732 13.05367534 15.93714828 19.50258665 22 24.5 C24.81131448 26.84276207 25.56535891 27.84626311 27 31 C27.495 31.78375 27.99 32.5675 28.5 33.375 C31.36461166 38.38807041 32.26633956 43.17986835 32.75390625 48.8515625 C32.99997408 50.99977375 33.31437522 52.94760686 34 55 C34.99 55.495 34.99 55.495 36 56 C35.34 56.99 34.68 57.98 34 59 C32.35 58.67 30.7 58.34 29 58 C28.87367188 58.71800781 28.74734375 59.43601562 28.6171875 60.17578125 C28.00349267 62.98401773 27.1693859 65.51176714 26.125 68.1875 C25.79757812 69.04730469 25.47015625 69.90710938 25.1328125 70.79296875 C24 73 24 73 21 75 C21 73.35 21 71.7 21 70 C18.00847418 70.77479736 18.00847418 70.77479736 15 72 C14.505 73.485 14.505 73.485 14 75 C13.01 75 12.02 75 11 75 C10.74000176 85.44326277 10.65613649 95.96840946 14 106 C14.99 106.33 15.98 106.66 17 107 C17.4125 107.928125 17.825 108.85625 18.25 109.8125 C20.73041199 114.33039328 23.94817072 116.0671534 28.9296875 117.58984375 C35.79706351 118.95036164 43.95507744 118.81725665 50 115 C52.13200761 112.47332686 53.87899894 109.90917196 55.58984375 107.08203125 C56.05519531 106.39496094 56.52054687 105.70789063 57 105 C57.66 105 58.32 105 59 105 C58.88521587 102.93690624 58.75773802 100.87451646 58.625 98.8125 C58.55539062 97.66394531 58.48578125 96.51539063 58.4140625 95.33203125 C57.92877258 91.42682083 57.28455562 88.38229355 54.5625 85.453125 C48.27657601 80.61296353 43.88429024 80.26825542 36 81 C32.12228712 82.76878132 30.53046646 84.26419168 28.0625 87.6875 C26.65647673 92.07098431 26.77720895 95.57349639 28 100 C29.82120296 102.81992717 31.00690956 104.50345478 34 106 C40.83948897 106.46855465 40.83948897 106.46855465 47 104 C48.30810782 101.41543213 49.20447491 98.78110397 50 96 C50.66 96 51.32 96 52 96 C51.77560344 101.60991399 50.51447236 104.12961642 46.5703125 107.8359375 C42.81142135 110.6223792 38.35967072 110.5122954 33.86328125 110.4765625 C27.80433095 109.46811511 24.50016172 105.01584231 21 100.3125 C19.20349373 94.36157298 18.67392271 88.30012415 21.03125 82.43359375 C24.77171236 76.29300137 30.42403067 71.17974209 37.5 69.35546875 C48.37420525 67.80929269 56.05463944 70.8260076 65 77 C71.28382633 83.12270258 73.11367639 92.17863481 73.25 100.6875 C73.18944491 108.87252911 71.37199134 117.35460395 65.6875 123.5 C58.7 130 58.7 130 56 130 C56 130.66 56 131.32 56 132 C54.02 132.66 52.04 133.32 50 134 C50 134.66 50 135.32 50 136 C43.7762423 138.43332797 38.30117053 139.5262607 31.625 139.4375 C30.79210449 139.42702637 29.95920898 139.41655273 29.10107422 139.40576172 C16.53145683 139.03613908 6.8517397 133.79439121 -2 125 C-5.48119783 120.97436686 -8.28118469 116.5706765 -11 112 C-11.43957031 111.27941406 -11.87914062 110.55882812 -12.33203125 109.81640625 C-17.96715183 99.66474708 -18.45623234 88.40585655 -18.3125 77.0625 C-18.31572266 75.79470703 -18.31894531 74.52691406 -18.32226562 73.22070312 C-18.27580754 64.98072857 -17.49322234 57.10203469 -16 49 C-15.34 49 -14.68 49 -14 49 C-13.896875 48.0925 -13.79375 47.185 -13.6875 46.25 C-12.72271681 39.56446013 -11.24569172 32.84682081 -8.53515625 26.65234375 C-6.85886091 22.66421108 -5.79964712 18.76075604 -4.8125 14.5625 C-4.63525391 13.83095703 -4.45800781 13.09941406 -4.27539062 12.34570312 C-3.84479109 10.56511585 -3.42160784 8.78273774 -3 7 C-2.34 7 -1.68 7 -1 7 C-1.020625 6.030625 -1.04125 5.06125 -1.0625 4.0625 C-1 1 -1 1 0 0 Z " fill="#1165F5" transform="translate(297,280)"/>
<path d="M0 0 C5.22947793 1.89226907 10.34174565 3.92284618 15.296875 6.453125 C18.14245674 7.83879959 19.87396452 8.04076232 22.9921875 7.765625 C23.6521875 9.085625 24.3121875 10.405625 24.9921875 11.765625 C24.3321875 11.765625 23.6721875 11.765625 22.9921875 11.765625 C23.33663631 14.23829265 23.33663631 14.23829265 23.9921875 16.765625 C24.6521875 17.095625 25.3121875 17.425625 25.9921875 17.765625 C26.88535802 19.33726159 27.70962741 20.94858677 28.4921875 22.578125 C29.12640625 23.88716797 29.12640625 23.88716797 29.7734375 25.22265625 C30.53084426 26.8030146 31.2853043 28.38479307 32.03515625 29.96875 C33.3140685 32.369973 35.01526611 33.90167055 36.9921875 35.765625 C38.69715287 37.39309194 40.37115782 39.05453811 41.9921875 40.765625 C41.9921875 41.425625 41.9921875 42.085625 41.9921875 42.765625 C42.6521875 42.765625 43.3121875 42.765625 43.9921875 42.765625 C45.66623195 44.42488108 47.33134625 46.09315321 48.9921875 47.765625 C50.60355303 48.9890692 52.2159958 50.21150865 53.85107422 51.40307617 C66.67419064 60.84226541 76.6712691 73.64900972 81.9921875 88.765625 C82.23589466 92.2967862 81.48121209 94.59774001 79.9921875 97.765625 C79.67894531 98.61898437 79.36570312 99.47234375 79.04296875 100.3515625 C77.43114512 104.69647838 75.74809005 109.00757607 72.9921875 112.765625 C72.3321875 112.765625 71.6721875 112.765625 70.9921875 112.765625 C69.73862454 109.42279044 68.97768564 106.59160262 68.6796875 103.015625 C67.76413536 94.74408496 62.49569965 86.8247802 56.9921875 80.765625 C56.20070313 80.14300781 55.40921875 79.52039063 54.59375 78.87890625 C51.77332524 76.58784049 49.64760088 74.1531732 47.3671875 71.328125 C46.61179687 70.40128906 45.85640625 69.47445312 45.078125 68.51953125 C39.9921875 61.80495084 39.9921875 61.80495084 39.9921875 58.765625 C39.0021875 58.765625 38.0121875 58.765625 36.9921875 58.765625 C36.6621875 60.745625 36.3321875 62.725625 35.9921875 64.765625 C35.6621875 63.445625 35.3321875 62.125625 34.9921875 60.765625 C34.3321875 60.765625 33.6721875 60.765625 32.9921875 60.765625 C32.74984375 61.31605469 32.5075 61.86648438 32.2578125 62.43359375 C29.58312842 67.36194682 25.57622285 71.47931245 21.9921875 75.765625 C21.4146875 76.49265625 20.8371875 77.2196875 20.2421875 77.96875 C16.82071993 82.20994417 14.42436112 84.31385809 8.85546875 85.046875 C4.52100738 85.33345096 2.63129833 85.26579869 -0.8828125 82.515625 C-1.5840625 81.608125 -2.2853125 80.700625 -3.0078125 79.765625 C-3.6059375 79.1675 -4.2040625 78.569375 -4.8203125 77.953125 C-6.66186411 74.5607931 -6.19891999 71.58777482 -6.0078125 67.765625 C-6.7296875 67.683125 -7.4515625 67.600625 -8.1953125 67.515625 C-12.43381634 66.38535731 -15.0610359 64.34358601 -17.3203125 60.578125 C-18.53718404 55.60001414 -18.63171001 50.63731753 -17.0078125 45.765625 C-17.7915625 45.023125 -18.5753125 44.280625 -19.3828125 43.515625 C-23.03923673 39.68508533 -23.89783835 38.15129928 -24.3203125 32.828125 C-24.2295755 29.08696864 -23.36281624 26.75466821 -21.0078125 23.765625 C-20.3478125 23.435625 -19.6878125 23.105625 -19.0078125 22.765625 C-19.3378125 21.115625 -19.6678125 19.465625 -20.0078125 17.765625 C-20.6678125 17.765625 -21.3278125 17.765625 -22.0078125 17.765625 C-22.92283176 8.39515003 -22.92283176 8.39515003 -20.7421875 4.51171875 C-14.82344168 -2.36954156 -8.53680457 -2.84425863 0 0 Z " fill="#0740E5" transform="translate(260.0078125,222.234375)"/>
<path d="M0 0 C4.08031121 0.53962352 6.13041887 2.67347178 9.0625 5.4375 C11.66124502 7.87211376 14.03292539 10.02195026 17 12 C17 12.66 17 13.32 17 14 C18.08861328 14.16822266 18.08861328 14.16822266 19.19921875 14.33984375 C22.12563993 15.02961387 24.22287809 16.05510814 26.8125 17.5625 C27.60269531 18.01753906 28.39289063 18.47257812 29.20703125 18.94140625 C29.79871094 19.29074219 30.39039063 19.64007813 31 20 C31 20.66 31 21.32 31 22 C31.556875 21.7525 32.11375 21.505 32.6875 21.25 C35 21 35 21 37.75 22.9375 C38.4925 23.618125 39.235 24.29875 40 25 C40.33 24.34 40.66 23.68 41 23 C41.99 23.33 42.98 23.66 44 24 C44 24.66 44 25.32 44 26 C44.56847656 26.18175781 45.13695312 26.36351562 45.72265625 26.55078125 C50.60701003 28.14084634 55.31029027 29.90459778 60 32 C60 32.66 60 33.32 60 34 C60.70125 34.268125 61.4025 34.53625 62.125 34.8125 C70.26325182 38.17395184 75.80988971 42.80988971 82 49 C83.2684375 49.86625 83.2684375 49.86625 84.5625 50.75 C89.16359189 54.99716175 91.17484694 60.70308183 91.49609375 66.90234375 C91.50167886 68.58083351 91.48168118 70.25958251 91.4375 71.9375 C91.4257373 72.81196777 91.41397461 73.68643555 91.40185547 74.58740234 C91.01818329 88.98181671 91.01818329 88.98181671 86 94 C84.68 91.36 83.36 88.72 82 86 C81.67 86 81.34 86 81 86 C80.63648438 87.62808594 80.63648438 87.62808594 80.265625 89.2890625 C79.92772466 90.73452507 79.58914687 92.17982939 79.25 93.625 C79.09273438 94.33785156 78.93546875 95.05070312 78.7734375 95.78515625 C77.62853965 100.5849203 75.92364792 103.94730106 73 108 C72.505 109.485 72.505 109.485 72 111 C71.34 111 70.68 111 70 111 C69.3490741 109.75264433 68.70448331 108.50198168 68.0625 107.25 C67.52302734 106.20585937 67.52302734 106.20585937 66.97265625 105.140625 C66 103 66 103 65.53710938 101.08740234 C61.64154069 85.94780586 50.33546248 72.99563332 38.5 63.4375 C37.5821875 62.69371094 36.664375 61.94992187 35.71875 61.18359375 C33.88581331 59.71145063 32.0307945 58.26643924 30.15625 56.84765625 C29.08890625 55.93306641 29.08890625 55.93306641 28 55 C28 54.34 28 53.68 28 53 C27.34 53 26.68 53 26 53 C26 52.34 26 51.68 26 51 C24.515 50.505 24.515 50.505 23 50 C23 49.34 23 48.68 23 48 C21.515 47.505 21.515 47.505 20 47 C19.67 46.01 19.34 45.02 19 44 C18.01 43.34 17.02 42.68 16 42 C11.89374431 35.7443761 9.10953307 29.14897317 7 22 C7.66 22 8.32 22 9 22 C6.60490662 19.10067643 4.68754757 18.49831724 1 18 C1.66 17.67 2.32 17.34 3 17 C3.66 17.33 4.32 17.66 5 18 C4.20722656 16.55367187 4.20722656 16.55367187 3.3984375 15.078125 C2.72312063 13.80252647 2.0486872 12.52645996 1.375 11.25 C1.024375 10.61578125 0.67375 9.9815625 0.3125 9.328125 C-0.6640625 7.453125 -0.6640625 7.453125 -2 4 C-1.2109375 1.546875 -1.2109375 1.546875 0 0 Z " fill="#176FF6" transform="translate(276,212)"/>
<path d="M0 0 C0.99 0.66 1.98 1.32 3 2 C3.26326473 4.63264728 3.36236332 7.11398929 3.375 9.75 C3.84477151 24.64130063 6.96912422 39.46702999 13.86328125 52.734375 C15 55 15 55 15 57 C17.475 56.505 17.475 56.505 20 56 C20 56.99 20 57.98 20 59 C21.485 59.495 21.485 59.495 23 60 C24.35421385 61.69382861 25.46236939 63.47681498 26.62109375 65.30859375 C28.26013448 67.31908848 29.62433017 67.9880602 32 69 C32.77859375 69.35320312 33.5571875 69.70640625 34.359375 70.0703125 C35.14828125 70.41835938 35.9371875 70.76640625 36.75 71.125 C37.54921875 71.47820312 38.3484375 71.83140625 39.171875 72.1953125 C39.77515625 72.46085937 40.3784375 72.72640625 41 73 C41 73.66 41 74.32 41 75 C46.61 75 52.22 75 58 75 C58.495 73.515 58.495 73.515 59 72 C61.1875 71 61.1875 71 64 70 C68.60367726 68.1902223 68.60367726 68.1902223 71.375 64.3125 C71.58125 63.549375 71.7875 62.78625 72 62 C71.01 62.99 70.02 63.98 69 65 C68.34 64.67 67.68 64.34 67 64 C67.95043374 62.66102417 68.91059147 61.32894573 69.875 60 C70.40867187 59.2575 70.94234375 58.515 71.4921875 57.75 C71.98976563 57.1725 72.48734375 56.595 73 56 C73.66 56 74.32 56 75 56 C74.88521587 53.93690624 74.75773802 51.87451646 74.625 49.8125 C74.55539062 48.66394531 74.48578125 47.51539063 74.4140625 46.33203125 C73.92877258 42.42682083 73.28455562 39.38229355 70.5625 36.453125 C64.27657601 31.61296353 59.88429024 31.26825542 52 32 C48.12228712 33.76878132 46.53046646 35.26419168 44.0625 38.6875 C42.65647673 43.07098431 42.77720895 46.57349639 44 51 C45.82120296 53.81992717 47.00690956 55.50345478 50 57 C56.83948897 57.46855465 56.83948897 57.46855465 63 55 C64.30810782 52.41543213 65.20447491 49.78110397 66 47 C66.66 47 67.32 47 68 47 C67.77560344 52.60991399 66.51447236 55.12961642 62.5703125 58.8359375 C58.81142135 61.6223792 54.35967072 61.5122954 49.86328125 61.4765625 C43.80433095 60.46811511 40.50016172 56.01584231 37 51.3125 C35.20349373 45.36157298 34.67392271 39.30012415 37.03125 33.43359375 C40.77171236 27.29300137 46.42403067 22.17974209 53.5 20.35546875 C64.37420525 18.80929269 72.05463944 21.8260076 81 28 C87.28382633 34.12270258 89.11367639 43.17863481 89.25 51.6875 C89.18944491 59.87252911 87.37199134 68.35460395 81.6875 74.5 C74.7 81 74.7 81 72 81 C72 81.66 72 82.32 72 83 C70.02 83.66 68.04 84.32 66 85 C66 85.66 66 86.32 66 87 C59.7762423 89.43332797 54.30117053 90.5262607 47.625 90.4375 C46.37565674 90.42178955 46.37565674 90.42178955 45.10107422 90.40576172 C32.53145683 90.03613908 22.8517397 84.79439121 14 76 C10.51880217 71.97436686 7.71881531 67.5706765 5 63 C4.56042969 62.27941406 4.12085938 61.55882812 3.66796875 60.81640625 C-1.96715183 50.66474708 -2.45623234 39.40585655 -2.3125 28.0625 C-2.31572266 26.79470703 -2.31894531 25.52691406 -2.32226562 24.22070312 C-2.27580754 15.98072857 -1.49322234 8.10203469 0 0 Z " fill="#247DF5" transform="translate(281,329)"/>
<path d="M0 0 C0.22042969 1.16015625 0.22042969 1.16015625 0.4453125 2.34375 C2.94323312 13.94328943 8.52718543 20.93097143 18 28 C20.90058433 29.66129231 23.86818469 30.84415392 27 32 C28.14082031 32.44472656 29.28164063 32.88945312 30.45703125 33.34765625 C33.63175116 34.58246064 36.81274362 35.79800532 40 37 C39.835 36.030625 39.67 35.06125 39.5 34.0625 C38.86603727 29.70512237 38.9103328 25.39369296 39 21 C40.07378227 22.6106734 41.13554812 24.23162083 42.11328125 25.90234375 C47.13547466 34.42534951 52.78880282 36.96287152 62 40 C63.485 40.495 63.485 40.495 65 41 C67.05893621 41.22325814 69.12233653 41.40705759 71.1875 41.5625 C72.27417969 41.64628906 73.36085938 41.73007813 74.48046875 41.81640625 C75.31191406 41.87699219 76.14335937 41.93757813 77 42 C77.80162043 44.32211338 78.13137748 45.5945836 77.36328125 47.96484375 C74.02684631 54.2284112 70.09174997 59.03554378 65 64 C64.34 64.78375 63.68 65.5675 63 66.375 C62.34 66.91125 61.68 67.4475 61 68 C58.375 67.6015625 58.375 67.6015625 56 67 C55.814375 65.93072266 55.814375 65.93072266 55.625 64.83984375 C54.15254976 58.00215293 52.30183341 54.50891867 46.64453125 50.33984375 C46.10183594 49.89769531 45.55914062 49.45554688 45 49 C45 48.34 45 47.68 45 47 C36.42028185 44.20833466 28.11795585 42.04076117 19.0546875 41.8671875 C6.36285936 41.62146548 -3.7286323 40.81004402 -13.0625 31.1875 C-16.17046576 27.17845326 -18.44810706 23.10055898 -19 18 C-18.33962137 13.44983017 -16.71202394 10.6946575 -13.4375 7.5 C-11 6 -11 6 -9 6 C-8.731875 5.38125 -8.46375 4.7625 -8.1875 4.125 C-6.04539468 0.2917589 -4.29196451 0 0 0 Z " fill="#1A6CF4" transform="translate(336,147)"/>
<path d="M0 0 C0.66 0.33 1.32 0.66 2 1 C2.125 6.75 2.125 6.75 1 9 C1.66 9.33 2.32 9.66 3 10 C3 11.65 3 13.3 3 15 C3.99 15.33 4.98 15.66 6 16 C7 18.125 7 18.125 8 21 C8.495 22.0725 8.99 23.145 9.5 24.25 C10.94454141 27.59639996 11.76177145 30.92812907 12.47265625 34.49609375 C12.90162793 36.53291484 13.44952909 38.54440486 14.03125 40.54296875 C15.63822901 46.90050075 15.3924163 53.46152006 15.47851562 59.98046875 C15.63397364 65.94854001 16.31936968 71.09371762 18.26586914 76.75048828 C19.04782704 79.14655084 19.54759451 81.52255439 20 84 C21.485 84.495 21.485 84.495 23 85 C23.4125 85.928125 23.825 86.85625 24.25 87.8125 C26.73041199 92.33039328 29.94817072 94.0671534 34.9296875 95.58984375 C43.03944538 97.1964939 51.07166567 96.05520357 58.1171875 91.6875 C59.78272889 90.51024986 61.39741329 89.26161082 63 88 C62.69417731 90.82885991 62.48465812 92.51534188 60.4375 94.5625 C57.63019077 96.21809262 54.75371131 97.64967148 51.8046875 99.03515625 C49.82545172 99.98108515 49.82545172 99.98108515 48 102 C44.96732497 103.03490854 42.12548382 103.13461684 38.9375 103.125 C37.65166016 103.12886719 37.65166016 103.12886719 36.33984375 103.1328125 C34 103 34 103 31 102 C30.67 101.34 30.34 100.68 30 100 C28.02501735 98.94100015 28.02501735 98.94100015 25.6875 98 C20.12035553 95.64431573 16.56918694 94.09883849 13 89 C13 88.34 13 87.68 13 87 C11.35 86.67 9.7 86.34 8 86 C8.99 85.505 8.99 85.505 10 85 C10 84.34 10 83.68 10 83 C7.525 83.495 7.525 83.495 5 84 C-3.56372184 68.15588064 -7.42337679 51.20410448 -7.859375 33.23828125 C-7.8520326 29.98594975 -7.8520326 29.98594975 -9 27 C-7.5685983 17.46178118 -4.36647999 8.55830078 0 0 Z " fill="#1661EE" transform="translate(291,302)"/>
<path d="M0 0 C0.91007812 0.00902344 1.82015625 0.01804688 2.7578125 0.02734375 C3.80582031 0.04474609 3.80582031 0.04474609 4.875 0.0625 C4.875 0.3925 4.875 0.7225 4.875 1.0625 C2.895 1.0625 0.915 1.0625 -1.125 1.0625 C-0.795 4.6925 -0.465 8.3225 -0.125 12.0625 C0.535 12.0625 1.195 12.0625 1.875 12.0625 C2.205 16.0225 2.535 19.9825 2.875 24.0625 C3.535 24.0625 4.195 24.0625 4.875 24.0625 C4.545 25.3825 4.215 26.7025 3.875 28.0625 C1.565 27.7325 -0.745 27.4025 -3.125 27.0625 C-2.795 27.7225 -2.465 28.3825 -2.125 29.0625 C-2.04191362 30.43798156 -2.01763984 31.81735796 -2.02734375 33.1953125 C-2.03056641 34.00097656 -2.03378906 34.80664062 -2.03710938 35.63671875 C-2.04548828 36.47847656 -2.05386719 37.32023437 -2.0625 38.1875 C-2.06701172 39.03699219 -2.07152344 39.88648438 -2.07617188 40.76171875 C-2.08797126 42.86200909 -2.10590694 44.9622633 -2.125 47.0625 C-1.465 47.0625 -0.805 47.0625 -0.125 47.0625 C0.205 46.4025 0.535 45.7425 0.875 45.0625 C0.875 45.7225 0.875 46.3825 0.875 47.0625 C5.33 46.5675 5.33 46.5675 9.875 46.0625 C9.771875 47.155625 9.66875 48.24875 9.5625 49.375 C9.665625 50.591875 9.76875 51.80875 9.875 53.0625 C12.28358714 54.9249438 12.28358714 54.9249438 14.875 56.0625 C14.875 56.7225 14.875 57.3825 14.875 58.0625 C15.865 58.0625 16.855 58.0625 17.875 58.0625 C17.875 58.7225 17.875 59.3825 17.875 60.0625 C19.195 60.0625 20.515 60.0625 21.875 60.0625 C22.535 62.3725 23.195 64.6825 23.875 67.0625 C24.390625 67.165625 24.90625 67.26875 25.4375 67.375 C28.73526435 68.30513866 31.74133332 69.67645512 34.875 71.0625 C31.92507896 76.61529254 27.86507332 82.17403264 22.5 85.5625 C18.55340726 86.31423195 14.85967571 86.77974163 10.875 86.0625 C8 83.8125 8 83.8125 5.875 81.0625 C5.276875 80.464375 4.67875 79.86625 4.0625 79.25 C2.22094839 75.8576681 2.68389251 72.88464982 2.875 69.0625 C2.153125 68.98 1.43125 68.8975 0.6875 68.8125 C-3.55100384 67.68223231 -6.1782234 65.64046101 -8.4375 61.875 C-9.65437154 56.89688914 -9.74889751 51.93419253 -8.125 47.0625 C-8.90875 46.32 -9.6925 45.5775 -10.5 44.8125 C-14.15642423 40.98196033 -15.01502585 39.44817428 -15.4375 34.125 C-15.346763 30.38384364 -14.48000374 28.05154321 -12.125 25.0625 C-11.465 24.7325 -10.805 24.4025 -10.125 24.0625 C-10.455 22.4125 -10.785 20.7625 -11.125 19.0625 C-11.785 19.0625 -12.445 19.0625 -13.125 19.0625 C-14.04001926 9.69202503 -14.04001926 9.69202503 -11.859375 5.80859375 C-8.08497506 1.42039576 -5.85587086 -0.07507527 0 0 Z " fill="#2592FE" transform="translate(251.125,220.9375)"/>
<path d="M0 0 C0.99 0 1.98 0 3 0 C3 0.66 3 1.32 3 2 C3.66 2 4.32 2 5 2 C5.98163422 3.93625098 6.96022454 5.87404539 7.9375 7.8125 C8.48277344 8.89144531 9.02804687 9.97039062 9.58984375 11.08203125 C11 14 11 14 12 17 C12.66 17 13.32 17 14 17 C14.639375 17.804375 15.27875 18.60875 15.9375 19.4375 C17.81035932 22.23720732 17.81035932 22.23720732 21 23 C23.48092494 27.16795391 24.79052539 31.34817457 26 36 C26.66 36 27.32 36 28 36 C27.979375 37.0725 27.95875 38.145 27.9375 39.25 C27.84146637 42.75319421 27.84146637 42.75319421 28.5625 45.0625 C29.19233345 47.85176242 28.56637572 50.23105203 28 53 C29.485 52.505 29.485 52.505 31 52 C29.25 55.875 29.25 55.875 27 57 C27 55.35 27 53.7 27 52 C24.00847418 52.77479736 24.00847418 52.77479736 21 54 C20.67 54.99 20.34 55.98 20 57 C19.01 57 18.02 57 17 57 C17 63.27 17 69.54 17 76 C14.81788935 72.72683403 14.75168197 71.74395537 14.7265625 67.94921875 C14.69949219 66.44548706 14.69949219 66.44548706 14.671875 64.91137695 C14.65640625 63.84749756 14.6409375 62.78361816 14.625 61.6875 C14.37241948 52.05715028 13.15748541 44.11723914 10 35 C9.64201459 33.33845393 9.30574336 31.67194793 9 30 C8.411438 27.645752 7.75407101 25.30657014 7 23 C6.34 22.67 5.68 22.34 5 22 C5 21.34 5 20.68 5 20 C4.34 19.67 3.68 19.34 3 19 C1.51237105 14.1238829 0.8864965 10.10765757 1 5 C0.708776 3.32546201 0.38929201 1.65449105 0 0 Z " fill="#1771F7" transform="translate(291,298)"/>
<path d="M0 0 C0.66 0.33 1.32 0.66 2 1 C1.93039063 1.83917969 1.93039063 1.83917969 1.859375 2.6953125 C1.50122195 10.65142665 3.58114102 17.50585654 6 25 C4.35 25 2.7 25 1 25 C1.0721875 25.60585937 1.144375 26.21171875 1.21875 26.8359375 C1.8924937 32.91834595 2.11713363 38.88302138 2 45 C0.515 45.495 0.515 45.495 -1 46 C-5.60590842 41.63650782 -7.8065555 39.43740065 -8.3125 33.0625 C-8.221763 29.32134364 -7.35500374 26.98904321 -5 24 C-4.34 23.67 -3.68 23.34 -3 23 C-3.33 21.35 -3.66 19.7 -4 18 C-4.66 18 -5.32 18 -6 18 C-6.92017937 8.57668161 -6.92017937 8.57668161 -4.6640625 4.7109375 C-3.18463384 3.02313861 -1.69077361 1.47439485 0 0 Z " fill="#36AAFE" transform="translate(244,222)"/>
<path d="M0 0 C0.99 0.33 1.98 0.66 3 1 C3 1.66 3 2.32 3 3 C5.97 3.33 8.94 3.66 12 4 C12 4.66 12 5.32 12 6 C13.32 6 14.64 6 16 6 C16.33 7.32 16.66 8.64 17 10 C15.68 10.33 14.36 10.66 13 11 C13 11.99 13 12.98 13 14 C14.0725 14.12375 15.145 14.2475 16.25 14.375 C19.37863615 14.89643936 21.33480424 15.40088254 24 17 C24 17.66 24 18.32 24 19 C24.804375 19.144375 25.60875 19.28875 26.4375 19.4375 C29 20 29 20 30 21 C32.67058851 21.14115161 35.32432238 21.04247107 38 21 C35.33786406 24.74670984 33.51876687 26.89541254 29 28 C25.90659914 28.41696114 23.0817024 28.55470643 20 28 C17.125 25.75 17.125 25.75 15 23 C14.401875 22.401875 13.80375 21.80375 13.1875 21.1875 C11.34594839 17.7951681 11.80889251 14.82214982 12 11 C11.278125 10.9175 10.55625 10.835 9.8125 10.75 C6.30931756 9.81581801 4.56094911 8.56094911 2 6 C0.6875 2.75 0.6875 2.75 0 0 Z " fill="#53CEFE" transform="translate(242,279)"/>
<path d="M0 0 C0.12375 0.556875 0.2475 1.11375 0.375 1.6875 C1.53492188 6.60610202 1.53492188 6.60610202 4.75 10.25 C7.06902468 11.09380278 7.06902468 11.09380278 9.875 11.4375 C13.44882129 12.08078783 15.954188 13.01668056 19 15 C19.875 17.6875 19.875 17.6875 20 20 C20.99 20.103125 21.98 20.20625 23 20.3125 C26.59988029 20.8163372 29.74884677 21.91399054 33.10546875 23.28125 C35.05161711 24.01958257 36.97783845 24.51370864 39 25 C39.99 25.33 40.98 25.66 42 26 C39.20573948 29.405505 37.16549656 31.30318356 32.8125 31.9375 C31.554375 31.958125 30.29625 31.97875 29 32 C28.34 31.34 27.68 30.68 27 30 C24.93125966 29.3574765 24.93125966 29.3574765 23 29 C23 28.34 23 27.68 23 27 C22.37351562 26.86722656 21.74703125 26.73445313 21.1015625 26.59765625 C20.28429687 26.42105469 19.46703125 26.24445313 18.625 26.0625 C17.81289063 25.88847656 17.00078125 25.71445312 16.1640625 25.53515625 C14 25 14 25 12 24 C12 23.01 12 22.02 12 21 C12.99 20.67 13.98 20.34 15 20 C15 18.68 15 17.36 15 16 C13.68 16 12.36 16 11 16 C11 15.34 11 14.68 11 14 C10.38511719 13.96261719 9.77023438 13.92523438 9.13671875 13.88671875 C8.32847656 13.82097656 7.52023438 13.75523437 6.6875 13.6875 C5.88699219 13.62949219 5.08648437 13.57148438 4.26171875 13.51171875 C1.56080185 12.90063047 0.60311739 12.24334 -1 10 C-1.56480622 6.6044388 -1.55774936 3.11549872 0 0 Z " fill="#37ADFE" transform="translate(243,269)"/>
<path d="M0 0 C0.99 0.33 1.98 0.66 3 1 C2.52691406 1.45737549 2.05382812 1.91475098 1.56640625 2.38598633 C-11.28037203 14.78549812 -11.28037203 14.78549812 -22 29 C-22.33 28.01 -22.66 27.02 -23 26 C-21.76169248 24.393547 -20.52293535 22.78743733 -19.28125 21.18359375 C-16.91824361 17.15639688 -16.55436092 12.57554611 -16 8 C-18.97 7.67 -21.94 7.34 -25 7 C-25 6.67 -25 6.34 -25 6 C-24.18917969 5.97421875 -23.37835938 5.9484375 -22.54296875 5.921875 C-10.45020966 5.4301728 -10.45020966 5.4301728 0 0 Z " fill="#1E7AFA" transform="translate(345,103)"/>
<path d="M0 0 C2 2 2 2 2.3125 5.4375 C2 9 2 9 0.875 10.9375 C-1.92162472 12.52225401 -3.8493196 12.45947423 -7 12 C-9.35210784 9.88310295 -9.91810953 8.55958485 -10.375 5.4375 C-10 3 -10 3 -8.9375 1.1875 C-5.94449731 -0.646921 -3.42183337 -0.31107576 0 0 Z " fill="#ECEFFC" transform="translate(358,150)"/>
<path d="M0 0 C1.32 0 2.64 0 4 0 C4.66 2.31 5.32 4.62 6 7 C6.515625 7.103125 7.03125 7.20625 7.5625 7.3125 C10.86026435 8.24263866 13.86633332 9.61395512 17 11 C16.67 11.66 16.34 12.32 16 13 C13.0625 13.75 13.0625 13.75 10 14 C9.34 13.34 8.68 12.68 8 12 C5.68456957 11.27359045 3.34730065 10.61568542 1 10 C-0.31345624 9.62836316 -1.62601062 9.25351929 -2.9375 8.875 C-3.948125 8.58625 -4.95875 8.2975 -6 8 C-4.71937515 6.2925002 -3.38232443 4.62626404 -2 3 C-1.34 3 -0.68 3 0 3 C0 2.01 0 1.02 0 0 Z " fill="#0C6FFE" transform="translate(269,281)"/>
<path d="M0 0 C3 3.75 3 3.75 3 6 C3.66 6 4.32 6 5 6 C5 6.99 5 7.98 5 9 C4.34 9 3.68 9 3 9 C3 9.99 3 10.98 3 12 C1.625 13.5 1.625 13.5 0 15 C-2.18994248 18.28491373 -2.35277339 19.83095639 -2.625 23.6875 C-2.69976562 24.68136719 -2.77453125 25.67523438 -2.8515625 26.69921875 C-2.90054687 27.45847656 -2.94953125 28.21773437 -3 29 C-3.33 29 -3.66 29 -4 29 C-4.11792821 25.85449187 -4.18781383 22.70956459 -4.25 19.5625 C-4.28351563 18.68400391 -4.31703125 17.80550781 -4.3515625 16.90039062 C-4.44758682 10.39474272 -3.09706761 5.71141866 0 0 Z " fill="#0E6BFA" transform="translate(314,149)"/>
<path d="M0 0 C0.12375 0.556875 0.2475 1.11375 0.375 1.6875 C1.53492188 6.60610202 1.53492188 6.60610202 4.75 10.25 C7.06902468 11.09380278 7.06902468 11.09380278 9.875 11.4375 C13.42001052 12.07560189 15.95076228 13.08536236 19 15 C19.875 17.1875 19.875 17.1875 20 19 C18.35 19.66 16.7 20.32 15 21 C15 19.35 15 17.7 15 16 C13.68 16 12.36 16 11 16 C11 15.34 11 14.68 11 14 C10.38511719 13.96261719 9.77023438 13.92523438 9.13671875 13.88671875 C8.32847656 13.82097656 7.52023438 13.75523437 6.6875 13.6875 C5.88699219 13.62949219 5.08648437 13.57148438 4.26171875 13.51171875 C1.56080185 12.90063047 0.60311739 12.24334 -1 10 C-1.56480622 6.6044388 -1.55774936 3.11549872 0 0 Z " fill="#44B8FE" transform="translate(243,269)"/>
<path d="M0 0 C1.79275866 3.11910856 2.34290718 5.67682428 2.625 9.25 C2.69976562 10.14203125 2.77453125 11.0340625 2.8515625 11.953125 C2.90054687 12.62859375 2.94953125 13.3040625 3 14 C1.68127338 13.60348083 0.37002899 13.18201309 -0.9375 12.75 C-1.66839844 12.51796875 -2.39929688 12.2859375 -3.15234375 12.046875 C-5 11 -5 11 -5.62890625 8.953125 C-5.75136719 8.30859375 -5.87382812 7.6640625 -6 7 C-6.66 6.67 -7.32 6.34 -8 6 C-4.55384615 1.2 -4.55384615 1.2 -1.75 0.1875 C-1.1725 0.125625 -0.595 0.06375 0 0 Z " fill="#014FF6" transform="translate(280,277)"/>
<path d="M0 0 C4.05606165 0.46800711 7.46588679 0.87953208 11 3 C11 3.66 11 4.32 11 5 C11.804375 5.144375 12.60875 5.28875 13.4375 5.4375 C16 6 16 6 17 7 C19.67058851 7.14115161 22.32432238 7.04247107 25 7 C23.9375 9 23.9375 9 22 11 C17.49637178 11.50040314 13.97702264 11.1978283 10 9 C8.33333333 7.33333333 6.66666667 5.66666667 5 4 C2.33466965 2.680982 2.33466965 2.680982 0 2 C0 1.34 0 0.68 0 0 Z " fill="#4FCBFE" transform="translate(255,293)"/>
<path d="M0 0 C1.08861328 0.44279297 1.08861328 0.44279297 2.19921875 0.89453125 C3.37484375 1.34505859 3.37484375 1.34505859 4.57421875 1.8046875 C5.33734375 2.10246094 6.10046875 2.40023438 6.88671875 2.70703125 C9.96030129 3.61399003 13.02804265 4.49236223 16.13671875 5.26953125 C17.74157759 5.67074596 19.31735881 6.18391127 20.88671875 6.70703125 C18.88671875 8.70703125 18.88671875 8.70703125 15.76171875 9.01953125 C12.01552129 8.71741855 9.49932849 7.98249401 6.0859375 6.57421875 C2.11158998 5.00706928 -2.01189242 3.89206368 -6.11328125 2.70703125 C-2.72265127 -0.37744703 -2.72265127 -0.37744703 0 0 Z " fill="#2691FE" transform="translate(264.11328125,288.29296875)"/>
<path d="M0 0 C0.66 0.33 1.32 0.66 2 1 C1.95359375 1.55945313 1.9071875 2.11890625 1.859375 2.6953125 C1.50122195 10.65142665 3.58114102 17.50585654 6 25 C4.35 25 2.7 25 1 25 C0.96261719 24.43152344 0.92523438 23.86304688 0.88671875 23.27734375 C0.55035331 19.3266987 0.15095802 15.91722772 -1.5625 12.3125 C-3.07266563 8.83255311 -3.51026576 6.74194888 -3 3 C-1.5 1.125 -1.5 1.125 0 0 Z " fill="#33A1FE" transform="translate(244,222)"/>
<path d="M0 0 C6 3 6 3 12 6 C12 6.66 12 7.32 12 8 C17.61 8 23.22 8 29 8 C29.33 7.01 29.66 6.02 30 5 C32.3125 3.9375 32.3125 3.9375 35 3 C36.34050052 2.34786461 37.67661368 1.68620031 39 1 C37.59335278 4.39939744 36.16905621 6.11569631 33 8 C25.96625754 10.78418973 18.1688872 11.32790696 10.921875 9.01953125 C6.10912997 6.92843214 2.58384593 4.88249976 -1 1 C-0.67 0.67 -0.34 0.34 0 0 Z " fill="#4AC7FE" transform="translate(310,396)"/>
<path d="M0 0 C3.72423488 2.91461861 5.89839796 4.79679593 8 9 C8.969375 9.804375 9.93875 10.60875 10.9375 11.4375 C13.80627108 13.83790029 15.31041825 15.71470215 17 19 C13.6092481 17.54682061 11.58699688 15.58699688 9 13 C8.01 12.67 7.02 12.34 6 12 C5.67 12.99 5.34 13.98 5 15 C1.28836791 12.3006312 0.70152875 8.2999586 0 4 C0 2.68 0 1.36 0 0 Z " fill="#0122D5" transform="translate(270,200)"/>
<path d="M0 0 C1.31061468 4.44469325 1.59854686 9.08640995 1.98632812 13.6875 C2.19379166 15.90952567 2.19379166 15.90952567 3 19 C4.93952082 20.53888335 4.93952082 20.53888335 7 21 C6.01 21.33 5.02 21.66 4 22 C-0.60590842 17.63650782 -2.8065555 15.43740065 -3.3125 9.0625 C-3.23575272 5.32979126 -2.26897139 3.02529518 0 0 Z " fill="#53C2FE" transform="translate(239,246)"/>
<path d="M0 0 C-0.1546875 1.6396875 -0.1546875 1.6396875 -0.3125 3.3125 C-0.209375 4.529375 -0.10625 5.74625 0 7 C2.40858714 8.8624438 2.40858714 8.8624438 5 10 C5 10.66 5 11.32 5 12 C5.99 12 6.98 12 8 12 C8 12.66 8 13.32 8 14 C5.525 13.505 5.525 13.505 3 13 C3 12.34 3 11.68 3 11 C2.01 11 1.02 11 0 11 C-0.66 10.01 -1.32 9.02 -2 8 C-4.05003955 6.80767387 -4.05003955 6.80767387 -6 6 C-6 5.34 -6 4.68 -6 4 C-7.32 3.67 -8.64 3.34 -10 3 C-6.68152292 -0.06320961 -4.44849969 -0.3033068 0 0 Z " fill="#0868FE" transform="translate(261,267)"/>
<path d="M0 0 C3.3 0 6.6 0 10 0 C10 0.33 10 0.66 10 1 C7.03 1 4.06 1 1 1 C1.20496094 2.05058594 1.40992188 3.10117188 1.62109375 4.18359375 C3.02030252 11.4432316 4.34177736 18.62790642 5 26 C3 25 3 25 1.9296875 22.41015625 C-3.14745884 6.29491768 -3.14745884 6.29491768 0 0 Z " fill="#2487FD" transform="translate(246,221)"/>
<path d="M0 0 C0.57975586 0.14945068 1.15951172 0.29890137 1.75683594 0.45288086 C5.22609035 1.29904968 8.73954248 1.91436783 12.25 2.5625 C12.99507813 2.70107422 13.74015625 2.83964844 14.5078125 2.98242188 C16.33833802 3.32271188 18.16914186 3.66150413 20 4 C17.15174603 6.84825397 14.5079168 7.20272041 10.625 7.375 C6.8149252 7.35017867 6.16315458 7.12916405 3 4.625 C1 2 1 2 0 0 Z " fill="#68E6FE" transform="translate(256,300)"/>
<path d="M0 0 C0.66 0.66 1.32 1.32 2 2 C1.97875977 4.1730957 1.97875977 4.1730957 1.62890625 6.86328125 C0.94914754 12.9951253 0.88610288 19.02379883 0.9375 25.1875 C0.94201172 26.23486328 0.94652344 27.28222656 0.95117188 28.36132812 C0.96279876 30.90761536 0.97913719 33.4537746 1 36 C0.67 36 0.34 36 0 36 C-1.25865856 30.7346117 -1.35989722 25.44688322 -1.60546875 20.0625 C-1.76963672 16.83575019 -1.9728456 14.08146319 -3 11 C-2.44140625 8.30078125 -2.44140625 8.30078125 -1.5625 5.3125 C-1.27503906 4.31863281 -0.98757813 3.32476562 -0.69140625 2.30078125 C-0.46324219 1.54152344 -0.23507812 0.78226562 0 0 Z " fill="#040EBE" transform="translate(285,318)"/>
<path d="M0 0 C0.66 0 1.32 0 2 0 C1.77560344 5.60991399 0.51447236 8.12961642 -3.4296875 11.8359375 C-6.62153821 14.20203579 -9.73669649 14.16202861 -13.5625 14.1875 C-15.01849609 14.20876953 -15.01849609 14.20876953 -16.50390625 14.23046875 C-19 14 -19 14 -21 12 C-18.69 12 -16.38 12 -14 12 C-14 11.67 -14 11.34 -14 11 C-13.07767578 10.83564453 -13.07767578 10.83564453 -12.13671875 10.66796875 C-11.32847656 10.50941406 -10.52023437 10.35085938 -9.6875 10.1875 C-8.88699219 10.03667969 -8.08648437 9.88585937 -7.26171875 9.73046875 C-4.70431857 8.90450358 -3.65216249 8.09542559 -2 6 C-0.79950593 2.89992799 -0.79950593 2.89992799 0 0 Z " fill="#5AAAFE" transform="translate(347,376)"/>
<path d="M0 0 C1.41539062 0.52400391 1.41539062 0.52400391 2.859375 1.05859375 C10.25422587 3.70762547 16.86313457 5.56053274 24.8046875 5.76171875 C25.52914063 5.84035156 26.25359375 5.91898438 27 6 C27.33 6.66 27.66 7.32 28 8 C24.6448921 7.91838805 21.29150558 7.80561448 17.9375 7.6875 C16.99455078 7.66494141 16.05160156 7.64238281 15.08007812 7.61914062 C9.35899993 7.39986585 5.04774406 6.77386207 0 4 C-0.33 3.34 -0.66 2.68 -1 2 C-0.67 1.34 -0.34 0.68 0 0 Z " fill="#67C2FE" transform="translate(386,183)"/>
<path d="M0 0 C0.99 0.495 0.99 0.495 2 1 C2 1.66 2 2.32 2 3 C2.66 3 3.32 3 4 3 C3.979375 4.0725 3.95875 5.145 3.9375 6.25 C3.84146637 9.75319421 3.84146637 9.75319421 4.5625 12.0625 C5.19233345 14.85176242 4.56637572 17.23105203 4 20 C4.99 19.67 5.98 19.34 7 19 C5.25 22.875 5.25 22.875 3 24 C3 22.35 3 20.7 3 19 C2.01 19.33 1.02 19.66 0 20 C0.16242188 19.44054687 0.32484375 18.88109375 0.4921875 18.3046875 C1.80104897 12.36447006 1.24323789 5.90537996 0 0 Z " fill="#40B7FE" transform="translate(315,331)"/>
<path d="M0 0 C0.99 0.33 1.98 0.66 3 1 C2.19175781 1.72445312 1.38351562 2.44890625 0.55078125 3.1953125 C-0.52883737 4.17166325 -1.60825365 5.14823777 -2.6875 6.125 C-3.21794922 6.599375 -3.74839844 7.07375 -4.29492188 7.5625 C-10.85903561 13.42656905 -10.85903561 13.42656905 -15 21 C-16.87617698 22.84499398 -18.92737609 24.3683599 -21 26 C-19.05489383 15.60294439 -7.27199758 7.07516155 0 0 Z " fill="#0309AF" transform="translate(346,105)"/>
<path d="M0 0 C0.66 0.33 1.32 0.66 2 1 C2.125 6.75 2.125 6.75 1 9 C1.66 9.33 2.32 9.66 3 10 C3 11.65 3 13.3 3 15 C3.99 15.33 4.98 15.66 6 16 C6.144375 16.886875 6.28875 17.77375 6.4375 18.6875 C6.91019978 21.47117646 7.43070185 24.23483757 8 27 C5.41589795 23.85512507 3.86214318 20.69294159 2.3125 16.9375 C1.87550781 15.89464844 1.43851562 14.85179687 0.98828125 13.77734375 C0 11 0 11 0 8 C-0.66 8 -1.32 8 -2 8 C-1.125 1.125 -1.125 1.125 0 0 Z " fill="#002CDD" transform="translate(291,302)"/>
<path d="M0 0 C0.99 0.33 1.98 0.66 3 1 C1.38113585 2.67262717 -0.2452729 4.33795537 -1.875 6 C-3.23238281 7.3921875 -3.23238281 7.3921875 -4.6171875 8.8125 C-7 11 -7 11 -9 11 C-9.12375 10.195625 -9.2475 9.39125 -9.375 8.5625 C-9.684375 7.2940625 -9.684375 7.2940625 -10 6 C-10.66 5.67 -11.32 5.34 -12 5 C-10.82630859 4.58427734 -10.82630859 4.58427734 -9.62890625 4.16015625 C-8.61699219 3.79792969 -7.60507812 3.43570313 -6.5625 3.0625 C-5.55316406 2.70285156 -4.54382813 2.34320313 -3.50390625 1.97265625 C-1.09686255 1.23122361 -1.09686255 1.23122361 0 0 Z " fill="#2E93F6" transform="translate(345,103)"/>
<path d="M0 0 C0.99 0 1.98 0 3 0 C3.33 3.63 3.66 7.26 4 11 C4.66 11 5.32 11 6 11 C6.33 14.96 6.66 18.92 7 23 C7.66 23 8.32 23 9 23 C8.67 24.32 8.34 25.64 8 27 C7.01 26.67 6.02 26.34 5 26 C4.97421875 25.42894531 4.9484375 24.85789063 4.921875 24.26953125 C4.46552942 17.74586371 2.91403685 11.97820968 0.83984375 5.78515625 C0 3 0 3 0 0 Z " fill="#0768FE" transform="translate(247,222)"/>
<path d="M0 0 C2.69100732 2.69100732 3.19748719 5.67048759 4.125 9.25 C4.30675781 9.90613281 4.48851562 10.56226563 4.67578125 11.23828125 C5.73647317 15.24977025 6.19297772 18.85741159 6 23 C-0.75 24.125 -0.75 24.125 -3 23 C-2.67 22.34 -2.34 21.68 -2 21 C-0.02 21.33 1.96 21.66 4 22 C3.71125 20.74703125 3.4225 19.4940625 3.125 18.203125 C2.74977488 16.55213448 2.37478729 14.90108996 2 13.25 C1.71382812 12.0125 1.71382812 12.0125 1.421875 10.75 C1.24140625 9.95078125 1.0609375 9.1515625 0.875 8.328125 C0.70742187 7.5949707 0.53984375 6.86181641 0.3671875 6.10644531 C0 4 0 4 0 0 Z " fill="#147AFE" transform="translate(247,225)"/>
<path d="M0 0 C0 6.27 0 12.54 0 19 C-0.66 18.67 -1.32 18.34 -2 18 C-2.47618812 15.12817413 -2.84167597 12.32879853 -3.125 9.4375 C-3.21136719 8.63119141 -3.29773438 7.82488281 -3.38671875 6.99414062 C-3.59943628 4.99695936 -3.80077855 2.99857263 -4 1 C-2 0 -2 0 0 0 Z " fill="#33A6FE" transform="translate(243,247)"/>
<path d="M0 0 C1 2 1 2 0.00390625 5.2578125 C-0.46889984 6.5497052 -0.94971969 7.83868638 -1.4375 9.125 C-1.68048828 9.78371094 -1.92347656 10.44242188 -2.17382812 11.12109375 C-2.77578321 12.74991338 -3.38702412 14.37529575 -4 16 C-4.33 16 -4.66 16 -5 16 C-5.33 13.69 -5.66 11.38 -6 9 C-7.65 9.66 -9.3 10.32 -11 11 C-7.33333333 7.33333333 -3.66666667 3.66666667 0 0 Z " fill="#40A1FA" transform="translate(299,105)"/>
<path d="M0 0 C2.4375 1.1875 2.4375 1.1875 3.4375 3.1875 C4.283125 3.6825 5.12875 4.1775 6 4.6875 C6.804375 5.1825 7.60875 5.6775 8.4375 6.1875 C8.4375 6.8475 8.4375 7.5075 8.4375 8.1875 C2.93910772 8.55405949 2.93910772 8.55405949 0.8125 7 C0.35875 6.401875 -0.095 5.80375 -0.5625 5.1875 C-1.284375 4.300625 -2.00625 3.41375 -2.75 2.5 C-3.348125 1.736875 -3.94625 0.97375 -4.5625 0.1875 C-2.5625 -0.8125 -2.5625 -0.8125 0 0 Z " fill="#167DFE" transform="translate(252.5625,269.8125)"/>
<path d="M0 0 C0.33 0 0.66 0 1 0 C1.33 3.63 1.66 7.26 2 11 C2.66 11 3.32 11 4 11 C4 13.31 4 15.62 4 18 C3.34 17.34 2.68 16.68 2 16 C2 15.01 2 14.02 2 13 C0.68 12.67 -0.64 12.34 -2 12 C-1.85904936 10.3745692 -1.71207913 8.74965949 -1.5625 7.125 C-1.48128906 6.22007812 -1.40007812 5.31515625 -1.31640625 4.3828125 C-1 2 -1 2 0 0 Z " fill="#0F1ECA" transform="translate(294,287)"/>
<path d="M0 0 C0 3.39701165 -0.52729093 4.01970093 -2.4375 6.6875 C-5.17617543 10.85740412 -5.73512471 14.05566118 -6 19 C-6.33 19 -6.66 19 -7 19 C-7 13.72 -7 8.44 -7 3 C-5.68 3 -4.36 3 -3 3 C-1.2488427 1.5833253 -1.2488427 1.5833253 0 0 Z " fill="#6ADBFE" transform="translate(314,351)"/>
<path d="M0 0 C1.48643845 0.56454632 2.96406016 1.15234889 4.4375 1.75 C5.67306641 2.23726563 5.67306641 2.23726563 6.93359375 2.734375 C9 4 9 4 9.78515625 6.140625 C9.85605469 6.75421875 9.92695313 7.3678125 10 8 C8.35 8.66 6.7 9.32 5 10 C5 8.35 5 6.7 5 5 C3.68 5 2.36 5 1 5 C1 4.34 1 3.68 1 3 C0.34 3 -0.32 3 -1 3 C-0.67 2.01 -0.34 1.02 0 0 Z " fill="#38ADFE" transform="translate(253,280)"/>
<path d="M0 0 C-1.15058556 5.39795989 -2.42421759 10.70987333 -4 16 C-4.66 15.67 -5.32 15.34 -6 15 C-5.69128878 13.20767663 -5.37790936 11.41615679 -5.0625 9.625 C-4.88847656 8.62726563 -4.71445312 7.62953125 -4.53515625 6.6015625 C-4 4 -4 4 -3 2 C-4.65 1.67 -6.3 1.34 -8 1 C-8 0.67 -8 0.34 -8 0 C-2.25 -1.125 -2.25 -1.125 0 0 Z " fill="#2379FA" transform="translate(379,138)"/>
<path d="M0 0 C6.9113364 0.47122748 12.72204161 3.20636006 19 6 C18.67 6.66 18.34 7.32 18 8 C15.2978814 7.37090365 12.76834119 6.57696507 10.1875 5.5625 C6.5021579 4.15197507 2.80789806 3.03130572 -1 2 C-0.67 1.34 -0.34 0.68 0 0 Z " fill="#167DFE" transform="translate(264,287)"/>
<path d="M0 0 C0.66 0 1.32 0 2 0 C1.22225866 5.05531868 0.14051606 10.01716284 -1 15 C-1.33 15 -1.66 15 -2 15 C-2 12.36 -2 9.72 -2 7 C-3.32 8.32 -4.64 9.64 -6 11 C-6.66 10.67 -7.32 10.34 -8 10 C-6.71580959 8.32756598 -5.42242815 6.66218553 -4.125 5 C-3.04605469 3.6078125 -3.04605469 3.6078125 -1.9453125 2.1875 C-1.30335938 1.465625 -0.66140625 0.74375 0 0 Z " fill="#C6D1F7" transform="translate(293,283)"/>
<path d="M0 0 C1.58971965 2.38457948 2.86741593 4.6304124 4.125 7.1875 C4.47820312 7.90292969 4.83140625 8.61835938 5.1953125 9.35546875 C5.46085937 9.89816406 5.72640625 10.44085938 6 11 C5.34 11 4.68 11 4 11 C3.34 12.32 2.68 13.64 2 15 C1.67 15 1.34 15 1 15 C-0.03590199 9.94997778 -0.10251672 5.12583611 0 0 Z " fill="#2984FE" transform="translate(375,168)"/>
<path d="M0 0 C0.33 0 0.66 0 1 0 C1.12117188 0.78246094 1.24234375 1.56492187 1.3671875 2.37109375 C1.53476562 3.38300781 1.70234375 4.39492188 1.875 5.4375 C2.03742188 6.44683594 2.19984375 7.45617187 2.3671875 8.49609375 C2.57601563 9.32238281 2.78484375 10.14867187 3 11 C3.66 11.33 4.32 11.66 5 12 C4.01 13.485 4.01 13.485 3 15 C1.68 14.67 0.36 14.34 -1 14 C-1.02685938 11.85423363 -1.04633088 9.70837355 -1.0625 7.5625 C-1.07410156 6.36753906 -1.08570313 5.17257812 -1.09765625 3.94140625 C-1 1 -1 1 0 0 Z " fill="#63CBFE" transform="translate(328,324)"/>
<path d="M0 0 C4.05606165 0.46800711 7.46588679 0.87953208 11 3 C11 3.66 11 4.32 11 5 C12.2065625 5.185625 12.2065625 5.185625 13.4375 5.375 C14.7059375 5.684375 14.7059375 5.684375 16 6 C16.33 6.66 16.66 7.32 17 8 C7.93730074 6.35399693 7.93730074 6.35399693 4 3 C1.85266073 2.29485154 1.85266073 2.29485154 0 2 C0 1.34 0 0.68 0 0 Z " fill="#43BDFE" transform="translate(255,293)"/>
<path d="M0 0 C0 0.66 0 1.32 0 2 C-0.99 2.495 -0.99 2.495 -2 3 C-2.33 8.94 -2.66 14.88 -3 21 C-6.16136508 16.78484657 -6.28912617 15.96109863 -5.65039062 11.00976562 C-5.48313477 9.92211914 -5.48313477 9.92211914 -5.3125 8.8125 C-5.22033203 8.07580078 -5.12816406 7.33910156 -5.03320312 6.58007812 C-4.77292606 4.706428 -4.39506912 2.84992685 -4 1 C-2 0 -2 0 0 0 Z " fill="#0D23D1" transform="translate(274,125)"/>
<path d="M0 0 C6.75 0.75 6.75 0.75 9 3 C8.34 3 7.68 3 7 3 C6.67 3.99 6.34 4.98 6 6 C5.01 5.67 4.02 5.34 3 5 C2.34 5.66 1.68 6.32 1 7 C0 4 0 4 0 0 Z " fill="#0717C8" transform="translate(265,226)"/>
<path d="M0 0 C0.78375 0.04125 1.5675 0.0825 2.375 0.125 C1.570625 1.053125 0.76625 1.98125 -0.0625 2.9375 C-3.47196854 7.61829579 -3.51291449 12.49015597 -3.625 18.125 C-3.955 18.125 -4.285 18.125 -4.625 18.125 C-4.67882106 15.49972811 -4.71858313 12.87555287 -4.75 10.25 C-4.76675781 9.50363281 -4.78351563 8.75726563 -4.80078125 7.98828125 C-4.8183959 6.03305539 -4.72820189 4.07757979 -4.625 2.125 C-2.625 0.125 -2.625 0.125 0 0 Z " fill="#4DACFA" transform="translate(314.625,159.875)"/>
<path d="M0 0 C1.76462683 3.08809695 2 4.23312136 2 8 C2.66 8 3.32 8 4 8 C4.144375 8.9075 4.28875 9.815 4.4375 10.75 C4.91364496 13.84504897 4.91364496 13.84504897 5.625 16.1875 C6 18 6 18 5 21 C2.12782571 13.97319219 0.32978484 7.60154046 0 0 Z " fill="#0142EE" transform="translate(286,354)"/>
<path d="M0 0 C4.48525648 0.656379 8.66914029 1.70074209 13 3 C12.01 4.485 12.01 4.485 11 6 C6.545 5.01 6.545 5.01 2 4 C2 3.34 2 2.68 2 2 C1.34 2 0.68 2 0 2 C0 1.34 0 0.68 0 0 Z " fill="#31A2FE" transform="translate(269,294)"/>
<path d="M0 0 C1.17571451 3.67410785 1.07366746 7.16929183 1 11 C1.66 11 2.32 11 3 11 C3.66 12.98 4.32 14.96 5 17 C3.68 16.34 2.36 15.68 1 15 C1 14.34 1 13.68 1 13 C0.34 13 -0.32 13 -1 13 C-1.02696365 11.20841511 -1.04637917 9.41671527 -1.0625 7.625 C-1.07410156 6.62726563 -1.08570313 5.62953125 -1.09765625 4.6015625 C-1 2 -1 2 0 0 Z " fill="#65D3FE" transform="translate(239,227)"/>
<path d="M0 0 C1.0828125 1.11375 1.0828125 1.11375 2.1875 2.25 C4.86301579 5.00265082 4.86301579 5.00265082 7.6875 6.9375 C10.46375609 9.4136203 11.10946558 11.43786232 12 15 C7.66666667 10.66666667 3.33333333 6.33333333 -1 2 C-0.67 1.34 -0.34 0.68 0 0 Z " fill="#48C4FE" transform="translate(353,256)"/>
<path d="M0 0 C2.5 1.375 2.5 1.375 5 3 C5 3.66 5 4.32 5 5 C6.2375 5.99 6.2375 5.99 7.5 7 C8.325 7.66 9.15 8.32 10 9 C10 9.66 10 10.32 10 11 C10.66 11 11.32 11 12 11 C11.67 11.99 11.34 12.98 11 14 C9.72599623 12.75323147 8.45593346 11.5024352 7.1875 10.25 C6.47980469 9.55390625 5.77210938 8.8578125 5.04296875 8.140625 C0 2.85659656 0 2.85659656 0 0 Z " fill="#0021D7" transform="translate(292,254)"/>
<path d="M0 0 C4.83256305 0.41421969 6.82679218 2.46413986 10 6 C9.01 6.33 8.02 6.66 7 7 C5.17578125 6.07421875 5.17578125 6.07421875 3.3125 4.6875 C2.37857422 4.01267578 2.37857422 4.01267578 1.42578125 3.32421875 C0.95527344 2.88722656 0.48476562 2.45023437 0 2 C0 1.34 0 0.68 0 0 Z " fill="#6DDFFE" transform="translate(244,283)"/>
<path d="M0 0 C1.32 0 2.64 0 4 0 C4.66 2.31 5.32 4.62 6 7 C3.69 6.34 1.38 5.68 -1 5 C-0.67 3.35 -0.34 1.7 0 0 Z " fill="#0462FD" transform="translate(269,281)"/>
<path d="M0 0 C0.66 0.33 1.32 0.66 2 1 C1.67 4.3 1.34 7.6 1 11 C0.67 10.01 0.34 9.02 0 8 C-0.66 8 -1.32 8 -2 8 C-1.125 1.125 -1.125 1.125 0 0 Z " fill="#0C1BC7" transform="translate(291,302)"/>
<path d="M0 0 C1.65 0.66 3.3 1.32 5 2 C5 2.33 5 2.66 5 3 C-1.6 3 -8.2 3 -15 3 C-15 2.67 -15 2.34 -15 2 C-14.00097656 1.93941406 -13.00195312 1.87882813 -11.97265625 1.81640625 C-10.68230469 1.73261719 -9.39195312 1.64882812 -8.0625 1.5625 C-6.77472656 1.48128906 -5.48695313 1.40007812 -4.16015625 1.31640625 C-1.13976043 1.35080812 -1.13976043 1.35080812 0 0 Z " fill="#081FC5" transform="translate(372,135)"/>
<path d="M0 0 C2.0625 2.25 2.0625 2.25 4 5 C3.75 7.3125 3.75 7.3125 3 9 C2.34 7.68 1.68 6.36 1 5 C0.01 8.465 0.01 8.465 -1 12 C-1.33 12 -1.66 12 -2 12 C-1.85904936 10.3745692 -1.71207913 8.74965949 -1.5625 7.125 C-1.48128906 6.22007812 -1.40007812 5.31515625 -1.31640625 4.3828125 C-1 2 -1 2 0 0 Z " fill="#73D4FE" transform="translate(357,296)"/>
<path d="M0 0 C2 1.375 2 1.375 4 4 C4.35791096 7.3580469 4.23115823 10.63536357 4 14 C1.8553857 11.8553857 1.55435397 10.98260002 0.875 8.125 C0.70742188 7.44695312 0.53984375 6.76890625 0.3671875 6.0703125 C0 4 0 4 0 0 Z " fill="#2D3ED1" transform="translate(270,200)"/>
<path d="M0 0 C0 0.99 0 1.98 0 3 C-3.2690159 6.1782099 -4.32165993 7 -9 7 C-8.67 6.01 -8.34 5.02 -8 4 C-5.625 2.9375 -5.625 2.9375 -3 2 C-2.01 1.34 -1.02 0.68 0 0 Z " fill="#58DBFE" transform="translate(348,397)"/>
<path d="M0 0 C0.66 0.33 1.32 0.66 2 1 C2 2.65 2 4.3 2 6 C1.4225 6.12375 0.845 6.2475 0.25 6.375 C-2.37005387 7.02543497 -2.37005387 7.02543497 -6 9 C-4.02 6.03 -2.04 3.06 0 0 Z " fill="#5ECBFE" transform="translate(354,385)"/>
<path d="M0 0 C3.78383679 0.92493788 5.56693694 1.39371171 7.875 4.625 C8.431875 5.800625 8.431875 5.800625 9 7 C8.01 8.485 8.01 8.485 7 10 C6.401875 9.0925 5.80375 8.185 5.1875 7.25 C3.51893234 4.77098519 1.82063145 2.36682089 0 0 Z " fill="#78D6FE" transform="translate(355,227)"/>
<path d="M0 0 C0.66 0.99 1.32 1.98 2 3 C-0.31 5.97 -2.62 8.94 -5 12 C-5.33 11.01 -5.66 10.02 -6 9 C-4.78515625 6.73828125 -4.78515625 6.73828125 -3.0625 4.3125 C-2.49660156 3.50425781 -1.93070312 2.69601563 -1.34765625 1.86328125 C-0.90292969 1.24839844 -0.45820313 0.63351563 0 0 Z " fill="#0256F7" transform="translate(328,120)"/>
<path d="M0 0 C1 2 1 2 0.4375 4.3125 C-1.47539467 7.88878134 -3.78248866 9.55189355 -7 12 C-6.38801624 8.56049636 -5.07941153 6.48435515 -2.9375 3.75 C-2.38964844 3.04359375 -1.84179688 2.3371875 -1.27734375 1.609375 C-0.85582031 1.07828125 -0.43429687 0.5471875 0 0 Z " fill="#010FBE" transform="translate(332,119)"/>
<path d="M0 0 C1.98 0.495 1.98 0.495 4 1 C3.67 1.99 3.34 2.98 3 4 C3.99 3.67 4.98 3.34 6 3 C4.25 6.875 4.25 6.875 2 8 C2 6.35 2 4.7 2 3 C1.01 3.33 0.02 3.66 -1 4 C-0.67 2.68 -0.34 1.36 0 0 Z " fill="#8EE8FE" transform="translate(316,347)"/>
<path d="M0 0 C0.33 0 0.66 0 1 0 C1.49230769 6.4 1.49230769 6.4 -1 9.4375 C-1.99 10.2109375 -1.99 10.2109375 -3 11 C-4.32 10.34 -5.64 9.68 -7 9 C-6.21625 8.814375 -5.4325 8.62875 -4.625 8.4375 C-1.60623658 7.16038373 -1.60623658 7.16038373 -0.6875 3.375 C-0.460625 2.26125 -0.23375 1.1475 0 0 Z " fill="#1D45EB" transform="translate(360,153)"/>
<path d="M0 0 C0.66 0.33 1.32 0.66 2 1 C-3.14285714 7.57142857 -3.14285714 7.57142857 -7 9 C-5.64978174 4.58110387 -3.73884332 2.65654657 0 0 Z " fill="#2157F1" transform="translate(327,353)"/>
<path d="M0 0 C0.928125 0.2784375 0.928125 0.2784375 1.875 0.5625 C4.04160178 1.23686176 4.04160178 1.23686176 6 0 C5.67 1.32 5.34 2.64 5 4 C3.02 4.33 1.04 4.66 -1 5 C-0.67 3.35 -0.34 1.7 0 0 Z " fill="#208CFD" transform="translate(312,156)"/>
<path d="M0 0 C-2.87164566 2.70272533 -4.30991841 3.94791837 -8.3125 4.25 C-9.199375 4.1675 -10.08625 4.085 -11 4 C-7.70333541 0.70333541 -4.58106555 -1.52702185 0 0 Z " fill="#61ABF2" transform="translate(348,104)"/>
<path d="M0 0 C0.99 0 1.98 0 3 0 C3.33 1.32 3.66 2.64 4 4 C3.34 4 2.68 4 2 4 C1.67 5.98 1.34 7.96 1 10 C0.67 10 0.34 10 0 10 C0 6.7 0 3.4 0 0 Z " fill="#071BD0" transform="translate(295,277)"/>
<path d="M0 0 C0.66 0 1.32 0 2 0 C3.60080151 4.00200378 2.29279692 7.04556236 1 11 C0.67 11 0.34 11 0 11 C0 7.37 0 3.74 0 0 Z " fill="#CFF4FE" transform="translate(368,277)"/>
<path d="M0 0 C2.62187494 1.04874998 3.79371361 1.64931313 5.25 4.125 C5.4975 4.74375 5.745 5.3625 6 6 C1.25 5.125 1.25 5.125 -1 4 C-0.67 2.68 -0.34 1.36 0 0 Z " fill="#2A9AFE" transform="translate(345,250)"/>
<path d="M0 0 C0.33 0 0.66 0 1 0 C1.96891192 5.37305699 1.96891192 5.37305699 2 8 C0.5625 10 0.5625 10 -1 11 C-1.14285714 3.57142857 -1.14285714 3.57142857 0 0 Z " fill="#0C70FE" transform="translate(292,122)"/>
<path d="M0 0 C0.6875 1.625 0.6875 1.625 1 4 C-0.4375 7.25 -0.4375 7.25 -2 10 C-2.33 10 -2.66 10 -3 10 C-2.25 2.25 -2.25 2.25 0 0 Z " fill="#030EC2" transform="translate(301,105)"/>
<path d="M0 0 C0.33 0 0.66 0 1 0 C1 1.65 1 3.3 1 5 C1.66 5 2.32 5 3 5 C3 7.31 3 9.62 3 12 C0.13700494 9.13700494 0.00578775 7.34147716 -0.0625 3.3125 C-0.041875 2.219375 -0.02125 1.12625 0 0 Z " fill="#002CE3" transform="translate(295,293)"/>
<path d="M0 0 C2.31399338 2.83990097 3.999446 5.45258126 5 9 C4.01 10.485 4.01 10.485 3 12 C2.49440092 10.56445975 1.9957251 9.1264798 1.5 7.6875 C1.2215625 6.88699219 0.943125 6.08648437 0.65625 5.26171875 C0 3 0 3 0 0 Z " fill="#0253F6" transform="translate(297,321)"/>
</svg>
